<svg xmlns="http://www.w3.org/2000/svg" width="1430" height="1430"><rect id="backgroundrect" width="100%" height="100%" fill="none"/><style>.st0{fill:#fff}</style><radialGradient id="Inner_Circle_1_" cx="750" cy="750" r="599.8" gradientUnits="userSpaceOnUse"><stop offset=".3" stop-color="#9672b2"/><stop offset=".7" stop-color="#825ea4"/><stop offset="1" stop-color="#79549d"/></radialGradient><g class="currentLayer"><g id="Outer_Circle"><g id="svg_2"><circle id="svg_3" cx="710" cy="705" r="700" class="st0"/></g></g><circle id="Inner_Circle" cx="710" cy="705" r="599.8" fill="url(#Inner_Circle_1_)"/><g id="Gibbon_Isolate" class="selected"><g id="svg_5"><path id="svg_6" d="M572.1 475.5c16.8 18.7 49 51 61.5 61.9 12.5 10.9 43.7 39.9 51.4 47.8 7.7 7.9 16.8 22.4 21.1 24.4 4.3 2 57.1-1 64.5-.3 7.5.8 36.2 10.4 52 14 15.6 3.7 61.8 15.1 81.2 12.6 19.4-2.5 70.7-25.3 84-31.5 13.2-6.2 58-24.1 76.8-31.2 19-7.1 35-11.9 51.7-21.8A193.2 193.2 0 0 1 1167 530c11.3-1.8 23.4-1.6 28.5 2.5 5.1 4.1 5 16.1 4.1 23.6-.8 7.5-5.8 16.5-10.4 17-4.6.5-9.7-3.5-7.3-6.8 2.4-3.3-1-9.2-8.8-7.5-7.7 1.7-24.6 4.4-30.9 6.8-6.3 2.4-18.6 14.2-29.8 19.5-11 5.4-55.3 27.9-76 42.9-20.8 14.9-60.7 39.5-69.4 45.1-8.6 5.6-11.5 4.3-27 13.8-15.7 9.4-32.6 21.8-46.2 26.9-13.7 5.1-35.4 10.9-35.4 10.9s17 6.8 27.5 6.4c10.6-.4 48.8 5.6 65.3 11.4 16.5 5.8 48 41.8 59.4 43.5 11.4 1.7 12.3 7.4 27.3-.6s33.1-17.2 54.4-24c21.4-6.8 49.3-18.5 54-19 4.5-.5 21.3 12.3 40 17.3 18.5 5 29.7 9.2 35.7 9.3 6 .1 25.6 1.2 28 7.5 2.3 6.3 7.4 10.4 2.1 12.3-5.3 2-4 5.1-9.5 3.5-5.4-1.6-11-4.2-17.6 4.2-6.4 8.4-14.2 10.1-22.3 10.8-8 .7-13.5-.9-23.6-5.5-10-4.6-26.4-12.9-33.7-10.1-7.3 2.8-34.5 35.7-61.4 46.9-26.9 11.3-55.4 18.4-72 15.1-16.9-3.3-42.6-17.6-52.3-21.1-9.7-3.6-28.5-2.5-28.5-2.5s44.4 32.4 61.4 39.2a209 209 0 0 0 71.6 9.1c14.8-2 40-11.4 49.4-5.4 9.5 6 12.3 7.3 14 15.1 1.7 7.7 11.6 24.4 16 26.4 4.2 2 18.8 12.1 15.5 19.3-3.3 7.2-19.9 17-28.6 13.1-8.6-3.9-16.5-15.4-23.9-22.2-7.3-6.8-13-9.5-24.6-5.1-11.6 4.3-52 20.7-71.2 20.7-19.2 0-61.9-5.5-75.4-16-13.5-10.5-56.4-38.7-70-52.7-13.6-14-24.5-30.3-32.4-41.7-7.9-11.4-4.7-22.2-12.6-24-7.9-1.8-67-13.1-87.6-19.8-20.5-6.7-51.8-29.6-61.5-42.8-9.7-13.1-17.7-18.5-23.3-17.6-5.6.9-24.7 14-37.9 10.6-13.2-3.4-24-25.7-30.8-47.1-6.8-21.4-8.5-29.1-2.8-36.1 5.8-6.9 16.3-20.5 16.3-20.5s-22-33.3-36.7-56.6c-14.7-23.2-53.2-59-66-86.6-12.7-27.5-53.9-86.3-73.3-112.5-19.4-26.2-37.9-56.4-45.9-61.8-8-5.4-31-12.3-32.3-19-1.3-6.7-1.6-13.8 2.6-15.4 4.2-1.6 15.3 12.2 17.3 7.9 2-4.3-13.5-20.1-18.2-23.1-4.7-3-24.7-33.8-22.3-37.1 2.4-3.3 9.3-7.1 12.5-8.3 3.1-1.2 8.5.4 12.1.3 3.5-.1 12.2-5.8 13.8-1.6 1.6 4.2 20.3 31.9 23.1 39.2 2.8 7.3 18.6 24.1 27.1 34.1s11.7 18.4 20.2 28.3c8.5 10 53.2 59 75.4 83 22.2 24.2 51.6 51.5 70 72.1z" class="st0"/></g></g><g id="gibbonedu.org"><path id="svg_7" d="M555 1023.8c.4 6.5.4 11 .4 21.9 0 21.7-1.9 29.5-8.7 36.5-7.6 8-17.7 10.1-47.7 10.1-17.3 0-25-1-32.5-4-16.3-6.8-21.9-19-21.9-48.3 0-33.3.4-40.7 3-50a33 33 0 0 1 24-24.5c6-1.7 14.3-2.3 30.2-2.3 26 0 32.5 1 41.1 6.1s11.8 14.1 12.2 33.1h-24.5c-.8-16.9-3.8-18.8-30-18.8-18.2 0-24.7 2.1-28 9.1-2.6 5.3-3 11.2-3 34.2 0 24 .5 31 2.8 35.9 3.2 7 10.3 9.1 30 9.1 14 0 21-1.3 24.1-4.6 3.2-3.2 5-10.1 5-20.3l-.5-5.1h-31.7v-18.1H555z" class="st0"/><path id="svg_8" d="M589.4 982.6H568v-18.2h21.5v18.2zm0 108.5H568v-88.8h21.5v88.8z" class="st0"/><path id="svg_9" d="M606.7 964.3h21.5v50.8l.4.2c4-10.1 11.8-14.1 28-14.1 11.1 0 19.5 2.7 24.4 7.6 6.7 6.5 8.7 16 8.7 37.8 0 20.5-1.7 28.3-7.6 35.9-4.9 6.7-13.9 9.7-27.4 9.7-15 0-22.2-4.2-27.2-15.2h-.4l1 14.1h-21.5V964.3zm21.8 79.7c0 27 2.7 31.4 20 31.4 16.3 0 19.4-4.6 19.4-28.7 0-23.6-3-28.3-18.8-28.3-15.8-.1-20.6 6-20.6 25.6z" class="st0"/><path id="svg_10" d="M703.8 964.3h21.5v50.8l.4.2c4-10.1 11.8-14.1 28-14.1 11.1 0 19.5 2.7 24.4 7.6 6.7 6.5 8.7 16 8.7 37.8 0 20.5-1.7 28.3-7.6 35.9-4.9 6.7-13.9 9.7-27.4 9.7-15 0-22.2-4.2-27.2-15.2h-.4l1 14.1h-21.5V964.3zm22 79.7c0 27 2.6 31.4 20 31.4 16.2 0 19.3-4.6 19.3-28.7 0-23.6-3-28.3-18.8-28.3-15.9-.1-20.6 6-20.6 25.6z" class="st0"/><path id="svg_11" d="M872.4 1008.6c6.7 6.3 9.1 15.8 9.1 35.9 0 39.5-7.2 47.7-41.8 47.7-20.9 0-31-3.2-36.3-12-4.4-7-5.7-15.2-5.7-36.9 0-19.4 2.7-28.9 9.5-35 6.3-5.5 14.3-7.2 33.1-7.2 18.1.1 26.3 2 32.1 7.5zm-52.8 37.3c0 26 2.5 29.7 19.8 29.7 18 0 20.3-3.8 20.3-30.6 0-23.4-2.7-27-20.2-27-17.2-.1-19.9 3.5-19.9 27.9z" class="st0"/><path id="svg_12" d="M917.5 1002.3l-.8 15h.4c4.2-11.2 12.7-16.2 27.6-16.2 14.3 0 23.8 4 28.1 11.6 2.3 4.2 3 8.2 3 17.9v60.5h-21.5v-53.4c0-16-2.7-19.2-15.8-19.2-14.4 0-20.9 6.1-20.9 20v52.7h-21.9v-88.8h21.8z" class="st0"/></g><g id="Gibbon_1_"><path id="svg_13" d="M510.7 1175.4c0 4.9-.5 7.4-1.9 9.6-2.4 3.7-7 5.4-15 5.4s-12.3-1.4-14.2-4.9c-1-1.9-1.4-3.7-1.4-8h5.5c.2 6.9 1.6 8 10.4 8 8.5 0 11-2.1 11-9.6v-7.9h-.3c-.8 2.2-1.8 3.1-3.8 4.1a22 22 0 0 1-8.8 1.4c-5.2 0-9-1.2-11.5-3.5-3-3-4-6.9-4-16 0-10 .7-13.9 3.6-17.1 2.5-2.8 6.3-4.1 12.4-4.1 6.7 0 10.2 1.7 12.3 6l.1-.1-.3-5.3h5.7v42zm-28-23c0 13.8 1.5 16.1 11 16.1 9 0 11.1-3 11.1-16.4 0-11.7-2-14.4-11.2-14.4-9 0-11 2.6-11 14.7z" class="st0"/><path id="svg_14" d="M525 1123h-5.7v-6.5h5.7v6.5zm0 49.9h-5.7v-39.5h5.7v39.5z" class="st0"/><path id="svg_15" d="M533.5 1116.5h5.7v22l.2.1c.7-2.2 1.6-3.2 3.4-4.1 2.4-1.1 5.7-1.7 9.5-1.7 11.6 0 15.3 5.1 15.3 20.8 0 15-4 19.9-16 19.9-6.8 0-10.3-1.6-12.5-5.5l.2 4.9h-5.7v-56.4zm6 35.4c0 14.2 1.6 16.6 11.3 16.6 8.8 0 10.7-2.7 10.7-15.4 0-12.8-1.9-15.5-10.6-15.5-9 .1-11.5 3.1-11.5 14.3z" class="st0"/><path id="svg_16" d="M575.1 1116.5h5.7v22l.2.1c.7-2.2 1.6-3.2 3.4-4.1 2.4-1.1 5.7-1.7 9.5-1.7 11.6 0 15.3 5.1 15.3 20.8 0 15-4 19.9-16 19.9-6.8 0-10.3-1.6-12.5-5.5l.2 4.9h-5.7v-56.4zm6 35.4c0 14.2 1.6 16.6 11.3 16.6 8.8 0 10.7-2.7 10.7-15.4 0-12.8-1.9-15.5-10.6-15.5-9.2.1-11.5 3.1-11.5 14.3z" class="st0"/><path id="svg_17" d="M650.4 1153.3c0 16.8-3 20.2-17.5 20.2s-17.4-3.4-17.4-20.6c0-16.6 3-20 17.5-20 14.6-.1 17.4 3.3 17.4 20.4zm-27.2-13c-1.2 1.9-1.7 5.5-1.7 12.6 0 14.2 1 15.6 11.4 15.6s11.5-1.5 11.5-15.4c0-14-1-15.5-11.4-15.5-5.8.1-8.6.9-9.8 2.7z" class="st0"/><path id="svg_18" d="M663.5 1133.4v5.5c2-4.3 5.7-6.1 13.2-6.1 6.5 0 10.8 1.7 12.8 5.1 1 1.7 1.4 3.9 1.4 9.3v25.7h-5.7v-25.2c0-4.2-.2-5.4-.9-6.9-1-2.2-3.5-3-8.4-3-8.7 0-12 3.2-12 11.4v23.7h-6v-39.5h5.6z" class="st0"/><path id="svg_19" d="M732.8 1161l.1 1.6c0 8.1-4.4 10.9-17 10.9-14.3 0-17.6-3.8-17.6-20.4 0-16.3 3.4-20.2 17.7-20.2 9.7 0 13.6 1.9 15.5 7.5 1 2.8 1.2 5.1 1.2 13.9h-28.4c.1 12.5 1.5 14.4 11.4 14.4 10 0 11.2-.8 11.1-7.6h6zm-5.9-11.3c0-5.5-.2-6.4-.8-8.4-1-2.9-3.5-3.9-9.9-3.9-9.9 0-11.7 1.9-11.7 12.3H727z" class="st0"/><path id="svg_20" d="M773.3 1172.9h-5.7l.3-5.2c-2 4.1-5.8 5.7-12.9 5.7-5.7 0-9.6-1.4-12-4-2.7-3-3.7-7.7-3.7-16.9 0-14.8 3.8-19.8 15.3-19.8 4.1 0 7.4.7 10 1.9 1.5.8 2.2 1.7 3 3.6l.1-.1v-21.8h5.7v56.6zm-25.4-33.1c-1.8 1.8-2.7 6-2.7 12.5 0 13.5 2 16.3 11 16.3 4.2 0 7-.8 8.7-2.4 1.8-1.6 2.6-6.5 2.6-14.2 0-11.2-2.5-14.3-11.4-14.3-3.8 0-6.9.8-8.2 2.1z" class="st0"/><path id="svg_21" d="M814 1172.9h-5.7l.4-5.2-.2-.2c-2 4.1-6.3 5.9-13 5.9-9.7 0-13.7-4.1-13.7-13.8v-26.3h5.7v26.3c0 7.1 1.8 8.9 8.8 8.9 9 0 12-3 12-12.5v-22.6h5.6v39.5z" class="st0"/><path id="svg_22" d="M828.8 1172.9h-6.7v-7.7h6.7v7.7z" class="st0"/><path id="svg_23" d="M871.1 1153.3c0 16.8-3 20.2-17.5 20.2s-17.4-3.4-17.4-20.6c0-16.6 3-20 17.5-20 14.6-.1 17.4 3.3 17.4 20.4zm-27.2-13c-1.2 1.9-1.7 5.5-1.7 12.6 0 14.2 1 15.6 11.4 15.6s11.5-1.5 11.5-15.4c0-14-1-15.5-11.4-15.5-5.8.1-8.6.9-9.8 2.7z" class="st0"/><path id="svg_24" d="M884.2 1133.4l-.6 4.6.2.1c2.5-4.1 5.6-5.6 11.2-5.6 7.5 0 11 3.5 11 11.2v2.7h-5.8v-3.2c0-4.1-1.9-5.8-6.5-5.8-4 0-7.2 1.4-8.4 4.1a18 18 0 0 0-1 7.8v23.7h-5.8v-39.5h5.7z" class="st0"/><path id="svg_25" d="M944.4 1175.4c0 4.9-.5 7.4-1.9 9.6-2.4 3.7-7 5.4-15 5.4s-12.3-1.4-14.2-4.9c-1-1.9-1.4-3.7-1.4-8h5.5c.2 6.9 1.6 8 10.4 8 8.5 0 11-2.1 11-9.6v-7.9h-.3c-.8 2.2-1.8 3.1-3.8 4.1a22 22 0 0 1-8.8 1.4c-5.2 0-9-1.2-11.5-3.5-3-3-4-6.9-4-16 0-10 .7-13.9 3.6-17.1 2.5-2.8 6.3-4.1 12.4-4.1 6.7 0 10.2 1.7 12.3 6l.1-.1-.3-5.3h5.7v42zm-28-23c0 13.8 1.5 16.1 11 16.1 9 0 11.1-3 11.1-16.4 0-11.7-2-14.4-11.2-14.4-9 0-11 2.6-11 14.7z" class="st0"/></g></g></svg>